<svg xmlns="http://www.w3.org/2000/svg" xmlns:xlink="http://www.w3.org/1999/xlink" viewBox="0 0 3385.33 907.98"><defs><style>.cls-1{fill:url(#linear-gradient);}.cls-2{opacity:0.15;}.cls-10,.cls-11,.cls-12,.cls-13,.cls-14,.cls-15,.cls-16,.cls-17,.cls-18,.cls-19,.cls-20,.cls-21,.cls-22,.cls-23,.cls-24,.cls-25,.cls-26,.cls-27,.cls-3,.cls-4,.cls-5,.cls-6,.cls-7,.cls-8,.cls-9{fill:none;stroke:#fff;stroke-linecap:round;stroke-width:3px;isolation:isolate;}.cls-3{stroke-dasharray:1 3;}.cls-23,.cls-3{opacity:0.89;}.cls-4{stroke-dasharray:11 13;opacity:0.86;}.cls-5{stroke-dasharray:8 6;opacity:0.32;}.cls-6{stroke-dasharray:13 6;opacity:0.37;}.cls-7{stroke-dasharray:3 10;opacity:0.26;}.cls-8{stroke-dasharray:13 11;opacity:0.61;}.cls-9{stroke-dasharray:16 14;opacity:0.83;}.cls-10{stroke-dasharray:16 15;}.cls-10,.cls-27{opacity:0.51;}.cls-11{stroke-dasharray:10 2;}.cls-11,.cls-19{opacity:0.62;}.cls-12{stroke-dasharray:0 14;opacity:0.76;}.cls-13{stroke-dasharray:4 13;opacity:0.96;}.cls-14{stroke-dasharray:16 7;opacity:0.84;}.cls-15{stroke-dasharray:10 10;opacity:0.66;}.cls-16{stroke-dasharray:13 0;}.cls-16,.cls-24{opacity:0.41;}.cls-17{stroke-dasharray:4 14;opacity:0.49;}.cls-18{stroke-dasharray:15 6;opacity:0.58;}.cls-19{stroke-dasharray:8 8;}.cls-20{stroke-dasharray:13 16;opacity:0.27;}.cls-21{stroke-dasharray:12 7;opacity:0.77;}.cls-22{stroke-dasharray:3 14;opacity:0.55;}.cls-23{stroke-dasharray:13 4;}.cls-24{stroke-dasharray:1 10;}.cls-25{stroke-dasharray:10 13;opacity:0.14;}.cls-26{stroke-dasharray:7 5;opacity:0.16;}.cls-27{stroke-dasharray:16 2;}</style><linearGradient id="linear-gradient" x1="3700.17" y1="923.48" x2="173.06" y2="98.59" gradientUnits="userSpaceOnUse"><stop offset="0" stop-color="#991e1b"></stop><stop offset="0.14" stop-color="#a02822"></stop><stop offset="0.38" stop-color="#b34435"></stop><stop offset="0.7" stop-color="#d27054"></stop><stop offset="1" stop-color="#f5a177"></stop></linearGradient></defs><g id="Layer_2" data-name="Layer 2"><g id="Layer_1-2" data-name="Layer 1"><rect class="cls-1" x="1.5" width="3382.33" height="907.98"></rect><g class="cls-2"><path class="cls-3" d="M1.5,472.08Q847.08,296.13,1692.67,677.36T3383.83,472.08"></path><path class="cls-4" d="M1.5,457.42q845.58-161.3,1691.17,219.94T3383.83,457.42"></path><path class="cls-5" d="M1.5,442.76q845.58-146.64,1691.17,234.6t1691.16-234.6"></path><path class="cls-6" d="M1.5,428.09q845.58-132,1691.17,249.27T3383.83,428.09"></path><path class="cls-7" d="M1.5,413.43q845.58-117.3,1691.17,263.93T3383.83,413.43"></path><path class="cls-8" d="M1.5,398.77Q847.08,296.13,1692.67,677.36T3383.83,398.77"></path><path class="cls-9" d="M1.5,384.1q845.58-88,1691.17,293.26T3383.83,384.1"></path><path class="cls-10" d="M1.5,369.44q845.58-73.32,1691.17,307.92T3383.83,369.44"></path><path class="cls-11" d="M1.5,354.78q845.58-58.65,1691.17,322.58T3383.83,354.78"></path><path class="cls-12" d="M1.5,340.12q845.58-44,1691.17,337.24T3383.83,340.12"></path><path class="cls-13" d="M1.5,325.45q845.58-29.32,1691.17,351.91T3383.83,325.45"></path><path class="cls-14" d="M1.5,310.79q845.58-14.67,1691.17,366.57T3383.83,310.79"></path><path class="cls-15" d="M1.5,296.13q845.58,0,1691.17,381.23T3383.83,296.13"></path><path class="cls-16" d="M1.5,281.46q845.58,14.67,1691.17,395.9t1691.16-395.9"></path><path class="cls-17" d="M1.5,266.8q845.58,29.32,1691.17,410.56T3383.83,266.8"></path><path class="cls-18" d="M1.5,252.14q845.58,44,1691.17,425.22T3383.83,252.14"></path><path class="cls-19" d="M1.5,237.47q845.58,58.66,1691.17,439.89T3383.83,237.47"></path><path class="cls-20" d="M1.5,222.81q845.58,73.32,1691.17,454.55T3383.83,222.81"></path><path class="cls-21" d="M1.5,208.15q845.58,88,1691.17,469.21T3383.83,208.15"></path><path class="cls-22" d="M1.5,193.49Q847.08,296.12,1692.67,677.36T3383.83,193.49"></path><path class="cls-23" d="M1.5,178.82q845.58,117.3,1691.17,498.54T3383.83,178.82"></path><path class="cls-24" d="M1.5,164.16q845.58,132,1691.17,513.2t1691.16-513.2"></path><path class="cls-25" d="M1.5,149.5Q847.08,296.13,1692.67,677.36T3383.83,149.5"></path><path class="cls-26" d="M1.5,134.83Q847.08,296.13,1692.67,677.36T3383.83,134.83"></path><path class="cls-27" d="M1.5,120.17q845.58,176,1691.17,557.19T3383.83,120.17"></path></g></g></g></svg>