<svg xmlns="http://www.w3.org/2000/svg" xmlns:xlink="http://www.w3.org/1999/xlink" width="139px" height="91px" viewBox="0 0 139 91"><title>5</title><defs><linearGradient x1="0%" y1="28.7470094%" x2="100%" y2="71.2529906%" id="linearGradient-1"><stop stop-color="#75A8FF" offset="0%"></stop><stop stop-color="#4D82FF" offset="100%"></stop></linearGradient><linearGradient x1="50%" y1="0%" x2="50%" y2="100%" id="linearGradient-2"><stop stop-color="#75A8FF" offset="0%"></stop><stop stop-color="#4D82FF" offset="100%"></stop></linearGradient><linearGradient x1="16.4839114%" y1="11.48891%" x2="77.2019412%" y2="82.4639215%" id="linearGradient-3"><stop stop-color="#FFD486" offset="0%"></stop><stop stop-color="#FFB32A" offset="100%"></stop></linearGradient></defs><g id="Page-1" stroke="none" stroke-width="1" fill="none" fill-rule="evenodd"><g id="icon-01" transform="translate(-134.000000, -475.000000)"><g id="svg-3094" transform="translate(133.000000, 475.000000)"><path d="M15.1510064,50.5278885 L15.1510064,12.3893651 C15.1510064,9.35179895 17.6134402,6.88936507 20.6510064,6.88936507 L79.3228984,6.88936507 L79.3228984,6.88936507" id="Path-6" stroke="#E0EBFE" stroke-width="2.2" stroke-dasharray="3.3,4.4"></path><path d="M49.2172108,87.336365 L42.1927066,87.336365 L42.1927066,13.464565 C42.1927066,10.4269989 44.6551405,7.964565 47.6927066,7.964565 L138.308982,7.964565 L138.308982,7.964565" id="Path-6-Copy" stroke="#E0EBFE" stroke-width="2.2" stroke-dasharray="3.3,4.4" transform="translate(90.250844, 47.650465) rotate(-180.000000) translate(-90.250844, -47.650465) "></path><g id="Group-7" transform="translate(19.893520, 72.176678) rotate(8.000000) translate(-19.893520, -72.176678) translate(2.794313, 55.588442)"><g id="Group-6" transform="translate(-0.000000, -0.000000)"><rect id="Rectangle-16" fill="#E0EBFE" x="0.526076028" y="0.234038394" width="32.7117342" height="32.8723545" rx="1.73510033"></rect><path d="M5.31665292,3.74042287 L28.4472333,3.74042287 C29.1659354,3.74042287 29.7485586,4.32304603 29.7485586,5.04174811 L29.7485586,28.2986831 C29.7485586,29.0173852 29.1659354,29.6000084 28.4472333,29.6000084 L5.31665292,29.6000084 C4.59795083,29.6000084 4.01532767,29.0173852 4.01532767,28.2986831 L4.01532767,5.04174811 C4.01532767,4.32304603 4.59795083,3.74042287 5.31665292,3.74042287 Z" id="Rectangle-16-Copy" fill="#F7F9FC"></path></g><path d="M17.1000213,8.12340346 C21.9176725,8.12340346 25.8231505,12.048058 25.8231505,16.8893647 C25.8231505,21.7306713 21.9176725,25.6553258 17.1000213,25.6553258 C12.2823702,25.6553258 8.37689223,21.7306713 8.37689223,16.8893647 L8.37812335,16.9534035 L17.3475814,16.9538541 C17.3475814,16.9538541 15.6399222,14.5093637 12.2246038,9.62038285 C13.6158526,8.67504653 15.2938302,8.12340346 17.1000213,8.12340346 Z" id="Combined-Shape" fill="#E0EBFE"></path><path d="M14.8232167,15.5181884 C14.8232167,15.5181884 12.5066004,15.5181884 7.87336758,15.5181884 C7.87387213,14.5046469 8.15717774,13.4483413 8.7232844,12.3492718 C9.28939107,11.2502024 10.0090105,10.425977 10.8821428,9.8765957 C13.5095254,13.6376575 14.8232167,15.5181884 14.8232167,15.5181884 Z" id="Path-5" fill="#E0EBFE"></path></g><g id="Group-3" transform="translate(22.129510, 15.655326)"><path d="M9.14976007,0 L95.0916328,0 C96.0499023,-3.98075847e-16 96.8267332,0.776830876 96.8267332,1.73510033 L96.8267332,58.2936419 L96.8267332,58.2936419 L7.41465975,58.2936419 L7.41465975,1.73510033 C7.41465975,0.776830876 8.19149062,-2.48850402e-15 9.14976007,0 Z" id="Rectangle-12" fill="url(#linearGradient-1)"></path><path d="M11.0253132,3.94468254 L92.9084692,3.94468254 C93.6271713,3.94468254 94.2097944,4.52730569 94.2097944,5.24600778 L94.2097944,55.6638536 L94.2097944,55.6638536 L9.723988,55.6638536 L9.723988,5.24600778 C9.723988,4.52730569 10.3066112,3.94468254 11.0253132,3.94468254 Z" id="Rectangle-12-Copy-2" fill="#F7F9FC"></path><path d="M1.73510033,58.2936419 L102.506293,58.2936419 C103.464562,58.2936419 104.241393,59.0704728 104.241393,60.0287422 L104.241393,62.6766225 L104.241393,62.6766225 L0,62.6766225 L0,60.0287422 C-3.39398766e-16,59.0704728 0.776830876,58.2936419 1.73510033,58.2936419 Z" id="Rectangle-12-Copy" fill="url(#linearGradient-2)" transform="translate(52.120696, 60.485132) scale(1, -1) translate(-52.120696, -60.485132) "></path></g><path d="M83.2985113,15.6553263 C94.0010153,15.5267811 105.341083,15.3806818 117.318715,15.2170282 C118.282245,15.2170282 119.063341,16.0019591 119.063341,16.9702204 C119.035272,22.5829495 119.035272,30.2898878 119.063341,40.0910354 C116.036994,42.6124144 111.384659,45.1324308 105.106334,47.6510846 L95.0517264,41.6979302 C87.7689223,37.3859115 83.2985113,29.5249327 83.2985113,21.0305297 C83.1557141,19.6869801 83.1557141,17.8952457 83.2985113,15.6553263 Z" id="Combined-Shape" fill="#FF6300" style="mix-blend-mode: multiply;" opacity="0.149999991"></path><path d="M39.5710051,53.7872574 L108.929407,53.7872574 C109.408542,53.7872574 109.796957,54.1756729 109.796957,54.6548076 L109.796957,57.7409859 C109.796957,58.2201206 109.408542,58.6085361 108.929407,58.6085361 L39.5710051,58.6085361 C39.0918704,58.6085361 38.703455,58.2201206 38.703455,57.7409859 L38.703455,54.6548076 C38.703455,54.1756729 39.0918704,53.7872574 39.5710051,53.7872574 Z" id="Rectangle-14-Copy" fill="#F7E08D"></path><rect id="Rectangle-14-Copy-2" fill="#F7E08D" x="38.703455" y="61.2383244" width="53.647244" height="4.82127865" rx="0.867550163"></rect><g id="Group-5" transform="translate(38.703455, 23.982989)"><rect id="Rectangle-14" fill="#F7E08D" x="0" y="0" width="39.254081" height="25.8595855" rx="0.867550163"></rect><g id="Group-4" transform="translate(12.648537, 5.259577)" fill="#E49900"><ellipse id="Oval-5" cx="7.41465975" cy="3.94468254" rx="3.9254081" ry="3.94468254"></ellipse><path d="M14.393163,15.3404321 C13.9907719,11.6190609 10.9003783,8.76596119 7.19658152,8.76596119 C3.49278471,8.76596119 0.402391122,11.6190609 0,15.3404321 L14.393163,15.3404321 Z" id="Combined-Shape" fill-rule="nonzero"></path></g></g><g id="Group-2" transform="translate(87.000000, 0.000000)"><path d="M0,5.72719235 L19.4776794,0 L38.9553589,5.72719235 L38.9553589,17.6994966 C38.9553589,25.8946985 34.6176859,33.4777265 27.5534739,37.6320305 L19.4776794,42.3812234 L19.4776794,42.3812234 L11.401885,37.6320305 C4.33767293,33.4777265 1.00362278e-15,25.8946985 0,17.6994966 L0,5.72719235 L0,5.72719235 Z" id="Rectangle-13" fill="url(#linearGradient-3)"></path><path d="M18.8986754,31.4995579 C12.4911937,31.4995579 7.29721957,26.3069772 7.29721957,19.9019934 C7.29721957,13.4970096 12.4911937,8.3044289 18.8986754,8.3044289 C25.3061572,8.3044289 30.5001313,13.4970096 30.5001313,19.9019934 C30.5001313,26.3069772 25.3061572,31.4995579 18.8986754,31.4995579 Z M18.8986754,29.7814002 C24.3557804,29.7814002 28.7799542,25.3584133 28.7799542,19.9019934 C28.7799542,14.4455735 24.3557804,10.0225866 18.8986754,10.0225866 C13.4415704,10.0225866 9.01739664,14.4455735 9.01739664,19.9019934 C9.01739664,25.3584133 13.4415704,29.7814002 18.8986754,29.7814002 Z" id="Oval-5-Copy" fill-opacity="0.5" fill="#FFFFFF" fill-rule="nonzero"></path><polygon id="Path-4" fill="#FFFFFF" fill-rule="nonzero" points="29.1523136 9.48813984 31.8367226 12.0706127 18.5282927 25.8718965 12.1005017 18.7044359 14.8766568 16.2206171 18.6273315 20.4028957"></polygon></g></g></g></g></svg>