<?xml version="1.0" encoding="UTF-8"?> <svg xmlns="http://www.w3.org/2000/svg" width="746" height="746" viewBox="0 0 746 746" fill="none"><path d="M707.413 77.1731H38.5866C17.276 77.1731 0 94.4477 0 115.758V630.24C0 651.551 17.276 668.827 38.5866 668.827H707.413C728.724 668.827 746 651.551 746 630.24V115.758C746 94.4477 728.724 77.1731 707.413 77.1731ZM720.276 630.242C720.276 637.345 714.516 643.104 707.413 643.104H38.5866C31.4835 643.104 25.7239 637.345 25.7239 630.242V167.207C25.7239 160.104 31.4835 154.345 38.5866 154.345H707.413C714.516 154.345 720.276 160.104 720.276 167.207V630.242V630.242Z" fill="#D7DEED"></path><path d="M38.5865 128.621C45.6904 128.621 51.4492 122.862 51.4492 115.758C51.4492 108.654 45.6904 102.896 38.5865 102.896C31.4827 102.896 25.7239 108.654 25.7239 115.758C25.7239 122.862 31.4827 128.621 38.5865 128.621Z" fill="#FF6464"></path><path d="M77.1731 128.621C84.277 128.621 90.0358 122.862 90.0358 115.758C90.0358 108.654 84.277 102.896 77.1731 102.896C70.0692 102.896 64.3104 108.654 64.3104 115.758C64.3104 122.862 70.0692 128.621 77.1731 128.621Z" fill="#FFE182"></path><path d="M115.758 128.621C122.862 128.621 128.621 122.862 128.621 115.758C128.621 108.654 122.862 102.896 115.758 102.896C108.654 102.896 102.896 108.654 102.896 115.758C102.896 122.862 108.654 128.621 115.758 128.621Z" fill="#A5D76E"></path><path d="M180.069 128.621H167.206C160.103 128.621 154.343 122.861 154.343 115.758C154.343 108.655 160.103 102.896 167.206 102.896H180.069C187.172 102.896 192.931 108.655 192.931 115.758C192.931 122.861 187.172 128.621 180.069 128.621Z" fill="#EFF2FA"></path><path d="M231.518 128.621H218.655C211.552 128.621 205.793 122.861 205.793 115.758C205.793 108.655 211.552 102.896 218.655 102.896H231.518C238.621 102.896 244.381 108.655 244.381 115.758C244.379 122.861 238.621 128.621 231.518 128.621Z" fill="#EFF2FA"></path><path d="M655.966 128.621H643.103C636 128.621 630.24 122.861 630.24 115.758C630.24 108.655 636 102.896 643.103 102.896H655.966C663.069 102.896 668.828 108.655 668.828 115.758C668.827 122.861 663.069 128.621 655.966 128.621Z" fill="#EFF2FA"></path><path d="M707.413 128.621H694.551C687.448 128.621 681.688 122.861 681.688 115.758C681.688 108.655 687.448 102.896 694.551 102.896H707.413C714.516 102.896 720.276 108.655 720.276 115.758C720.276 122.861 714.516 128.621 707.413 128.621Z" fill="#EFF2FA"></path><path d="M591.655 128.621H282.966C275.863 128.621 270.103 122.861 270.103 115.758C270.103 108.655 275.863 102.896 282.966 102.896H591.655C598.758 102.896 604.518 108.655 604.518 115.758C604.518 122.861 598.758 128.621 591.655 128.621Z" fill="#EFF2FA"></path><path d="M567.815 549.514L523.79 593.539C518.798 598.531 510.704 598.531 505.712 593.539L178.185 266.013C173.193 261.021 173.193 252.928 178.185 247.936L222.21 203.91C227.202 198.918 235.296 198.918 240.288 203.91L567.814 531.436C572.807 536.427 572.807 544.522 567.815 549.514Z" fill="#FFCD78"></path><path d="M376.766 376.766L394.956 358.577L376.766 340.387L358.577 358.577C353.554 363.599 353.554 371.743 358.577 376.766C363.601 381.79 371.744 381.79 376.766 376.766Z" fill="#EBB45F"></path><path d="M340.389 340.389L358.578 322.199L340.389 304.01L322.199 322.199C317.177 327.222 317.177 335.366 322.199 340.389C327.22 345.411 335.365 345.411 340.389 340.389Z" fill="#EBB45F"></path><path d="M304.008 304.008L322.198 285.819L304.008 267.629L285.819 285.819C280.796 290.841 280.796 298.984 285.819 304.008C290.842 309.032 298.986 309.032 304.008 304.008Z" fill="#EBB45F"></path><path d="M449.526 449.526L467.716 431.337L449.526 413.147L431.337 431.337C426.314 436.359 426.314 444.504 431.337 449.526C436.359 454.549 444.504 454.549 449.526 449.526Z" fill="#EBB45F"></path><path d="M413.147 413.147L431.337 394.957L413.147 376.768L394.958 394.957C389.935 399.98 389.935 408.123 394.958 413.147C399.98 418.169 408.123 418.169 413.147 413.147Z" fill="#EBB45F"></path><path d="M485.905 485.905L504.095 467.716L485.905 449.526L467.716 467.716C462.693 472.738 462.693 480.883 467.716 485.905C472.74 490.929 480.883 490.929 485.905 485.905Z" fill="#EBB45F"></path><path d="M522.285 522.285L540.474 504.095L522.285 485.905L504.095 504.095C499.073 509.117 499.073 517.261 504.095 522.285C509.117 527.308 517.262 527.308 522.285 522.285Z" fill="#EBB45F"></path><path d="M267.629 267.629L285.819 249.439L267.629 231.25L249.439 249.439C244.417 254.462 244.417 262.607 249.439 267.629C254.462 272.651 262.607 272.651 267.629 267.629Z" fill="#EBB45F"></path><path d="M503.566 231.775L231.294 504.046L267.673 540.425L539.945 268.153L503.566 231.775Z" fill="#FF6464"></path><path d="M539.955 268.152L521.766 249.962L249.494 522.234L267.683 540.423L539.955 268.152Z" fill="#D2555A"></path><path d="M267.676 540.427L189.962 587.055C186.517 589.121 182.601 585.206 184.667 581.761L231.295 504.047L267.676 540.427Z" fill="#FFE6A1"></path><path d="M189.963 587.055L222.202 567.712L204.012 549.522L184.668 581.761C182.602 585.206 186.517 589.121 189.963 587.055Z" fill="#FF6464"></path><path d="M539.948 213.586L558.138 231.776C563.16 236.798 563.16 244.943 558.138 249.965L539.948 268.155L503.569 231.776L521.759 213.586C526.782 208.564 534.926 208.564 539.948 213.586Z" fill="#FFE6A1"></path><path d="M539.948 231.776L521.758 249.965L539.948 268.155L558.138 249.965C563.16 244.943 563.16 236.8 558.138 231.776L539.948 213.586C544.972 218.609 544.97 226.753 539.948 231.776Z" fill="#FFDC9B"></path></svg> 