<svg xmlns="http://www.w3.org/2000/svg" xmlns:xlink="http://www.w3.org/1999/xlink" width="169px" height="118px" viewBox="0 0 169 118"><title>2</title><defs><linearGradient x1="50%" y1="0%" x2="50%" y2="100%" id="linearGradient-1"><stop stop-color="#DDE9FD" offset="0%"></stop><stop stop-color="#C2D5F8" offset="100%"></stop></linearGradient><linearGradient x1="0%" y1="28.701745%" x2="100%" y2="71.298255%" id="linearGradient-2"><stop stop-color="#60698C" offset="0%"></stop><stop stop-color="#3E4460" offset="100%"></stop></linearGradient><linearGradient x1="12.1227709%" y1="14.8660714%" x2="87.8772291%" y2="100%" id="linearGradient-3"><stop stop-color="#619BFF" offset="0%"></stop><stop stop-color="#4D82FF" offset="100%"></stop></linearGradient><path d="M24.0303812,0.141903588 L46.4704733,13.1116282 C46.7981691,13.3010269 47,13.6507962 47,14.0292885 L47,39.9707115 C47,40.3492038 46.7981691,40.6989731 46.4704733,40.8883718 L24.0303812,53.8580964 C23.7022275,54.0477598 23.2977725,54.0477598 22.9696188,53.8580964 L0.52952672,40.8883718 C0.201830855,40.6989731 -4.76512162e-16,40.3492038 0,39.9707115 L0,14.0292885 C1.38119554e-17,13.6507962 0.201830855,13.3010269 0.52952672,13.1116282 L22.9696188,0.141903588 C23.2977725,-0.0477597725 23.7022275,-0.0477597725 24.0303812,0.141903588 Z" id="path-4"></path><filter x="-23.4%" y="-16.7%" width="146.8%" height="140.7%" filterUnits="objectBoundingBox" id="filter-5"><feGaussianBlur stdDeviation="2"></feGaussianBlur></filter></defs><g id="Page-1" stroke="none" stroke-width="1" fill="none" fill-rule="evenodd"><g id="icon-03" transform="translate(-712.000000, -239.000000)"><g id="svg-4780" transform="translate(712.000000, 239.000000)"><g id="Group-61"><g id="Group-48"><path d="M14,0 L141.372093,0 C143.028947,1.48555519e-14 144.372093,1.34314575 144.372093,3 L144.372093,90.7692308 L144.372093,90.7692308 L11,90.7692308 L11,3 C11,1.34314575 12.3431458,-1.91608686e-15 14,0 Z" id="Rectangle-12" fill="url(#linearGradient-1)" fill-rule="nonzero"></path><path d="M18.4186047,5.42307692 L136.581395,5.42307692 C137.685965,5.42307692 138.581395,6.31850742 138.581395,7.42307692 L138.581395,83.1538462 C138.581395,84.2584157 137.685965,85.1538462 136.581395,85.1538462 L18.4186047,85.1538462 C17.3140352,85.1538462 16.4186047,84.2584157 16.4186047,83.1538462 L16.4186047,7.42307692 C16.4186047,6.31850742 17.3140352,5.42307692 18.4186047,5.42307692 Z" id="Rectangle-12-Copy-2" fill="url(#linearGradient-2)"></path><path d="M4.22508196,90.7692308 L150.774918,90.7692308 C153.108366,90.7692308 155,92.6608644 155,94.9943127 L155,98 L155,98 L0,98 L0,94.9943127 C-2.85765003e-16,92.6608644 1.89163363,90.7692308 4.22508196,90.7692308 Z" id="Rectangle-12-Copy" fill="#DDE9FD" fill-rule="nonzero" transform="translate(77.500000, 94.384615) scale(1, -1) translate(-77.500000, -94.384615) "></path><path d="M69.6860465,90.7692308 L87.1162791,90.7692308 C88.7731333,90.7692308 90.1162791,92.1123765 90.1162791,93.7692308 L90.1162791,93.7692308 L90.1162791,93.7692308 L66.6860465,93.7692308 C66.6860465,92.1123765 68.0291923,90.7692308 69.6860465,90.7692308 Z" id="Rectangle-12-Copy-3" fill="#FFFFFF" opacity="0.8" transform="translate(78.401163, 92.269231) rotate(-180.000000) translate(-78.401163, -92.269231) "></path></g><g id="Group-10" transform="translate(26.000000, 18.000000)"><g id="Group-49" transform="translate(0.837209, 0.076923)"><rect id="Rectangle-30" fill="#50E3C2" x="19.8255814" y="0" width="21.627907" height="3.61538462"></rect><rect id="Rectangle-30-Copy-2" fill="#50E3C2" x="61.2790698" y="0" width="21.627907" height="3.61538462"></rect><rect id="Rectangle-30-Copy" fill="#5C86FE" x="0" y="0" width="14.4186047" height="3.61538462"></rect><rect id="Rectangle-30-Copy-3" fill="#5C86FE" x="46.8604651" y="0" width="9.01162791" height="3.61538462"></rect></g><g id="Group-49-Copy-2" transform="translate(42.244186, 45.461538) scale(-1, 1) translate(-42.244186, -45.461538) translate(0.744186, 43.461538)"><rect id="Rectangle-30" fill="#50E3C2" x="19.8255814" y="0" width="21.627907" height="3.61538462"></rect><rect id="Rectangle-30-Copy-2" fill="#50E3C2" x="61.2790698" y="0" width="21.627907" height="3.61538462"></rect><rect id="Rectangle-30-Copy" fill="#5C86FE" x="0" y="0" width="14.4186047" height="3.61538462"></rect><rect id="Rectangle-30-Copy-3" fill="#5C86FE" x="46.8604651" y="0" width="9.01162791" height="3.61538462"></rect></g><g id="Group-49-Copy-4" transform="translate(0.837209, 29.000000)" fill="#5C86FE"><rect id="Rectangle-30-Copy" x="0" y="0" width="14.4186047" height="3.61538462"></rect></g><g id="Group-49-Copy" transform="translate(0.837209, 7.307692)"><rect id="Rectangle-30" fill="#50E3C2" x="59.4767442" y="0" width="12.6162791" height="3.61538462"></rect><rect id="Rectangle-30-Copy" fill="#50E3C2" x="0" y="0" width="32.4418605" height="3.61538462"></rect><rect id="Rectangle-30-Copy-3" fill="#5C86FE" x="37.8488372" y="0" width="16.2209302" height="3.61538462"></rect></g><g id="Group-49-Copy-3" transform="translate(46.755814, 52.692308) scale(-1, 1) translate(-46.755814, -52.692308) translate(0.755814, 50.692308)"><rect id="Rectangle-30" fill="#50E3C2" x="79.3023256" y="0" width="12.6162791" height="3.61538462"></rect><rect id="Rectangle-30-Copy-4" fill="#50E3C2" x="0" y="0" width="14.4186047" height="3.61538462"></rect><rect id="Rectangle-30-Copy" fill="#50E3C2" x="19.8255814" y="0" width="32.4418605" height="3.61538462"></rect><rect id="Rectangle-30-Copy-3" fill="#5C86FE" x="57.6744186" y="0" width="16.2209302" height="3.61538462"></rect></g><g id="Group-49-Copy-5" transform="translate(0.837209, 36.230769)"><rect id="Rectangle-30" fill="#50E3C2" x="59.4767442" y="0" width="12.6162791" height="3.61538462"></rect><rect id="Rectangle-30-Copy" fill="#50E3C2" x="0" y="0" width="32.4418605" height="3.61538462"></rect><rect id="Rectangle-30-Copy-3" fill="#5C86FE" x="37.8488372" y="0" width="16.2209302" height="3.61538462"></rect></g></g></g><g id="Group-14" transform="translate(114.000000, 54.000000)"><g id="Polygon-Copy"><use fill="black" fill-opacity="1" filter="url(#filter-5)" xlink:href="#path-4"></use><path stroke="#FFFFFF" stroke-width="4" d="M23.5,-2.00034393 C24.0287523,-2.00034393 24.5575046,-1.86345647 25.0311873,-1.58968154 L25.0311873,-1.58968154 L47.4712794,11.380043 C48.4173231,11.9268289 49,12.9365976 49,14.0292885 L49,14.0292885 L49,39.9707115 C49,41.0634024 48.4173231,42.0731711 47.4712794,42.619957 L47.4712794,42.619957 L25.0311873,55.5896815 C24.5575046,55.8634565 24.0287523,56.0003439 23.5,56.0003439 C22.9712477,56.0003439 22.4424954,55.8634565 21.9688127,55.5896815 L21.9688127,55.5896815 L-0.471279429,42.619957 C-1.41732311,42.0731711 -2,41.0634024 -2,39.9707115 L-2,39.9707115 L-2,14.0292885 C-2,12.9365976 -1.41732311,11.9268289 -0.471279429,11.380043 L-0.471279429,11.380043 L21.9688127,-1.58968154 C22.4424954,-1.86345647 22.9712477,-2.00034393 23.5,-2.00034393 Z" fill="url(#linearGradient-3)" fill-rule="evenodd"></path></g><path d="M16.3548284,20 C16.7440258,20 17.0966201,20.1446075 17.3773294,20.3762952 L17.3773294,20.3762952 L17.6205334,20.6244192 C17.8475948,20.9108073 17.9892383,21.2705345 17.9892383,21.6675067 C17.9892383,22.0956424 17.8265545,22.4819638 17.5665955,22.7772603 L17.5665955,22.7772603 L17.4425769,22.9037878 L12.9410786,27.496384 L17.4328784,32.0790197 L17.594241,32.2436468 C17.8437604,32.5364121 18,32.9141209 18,33.3325262 C18,33.7100048 17.8724371,34.0542818 17.6651272,34.3337665 L17.6651272,34.3337665 L17.3472027,34.6581227 C17.0732276,34.869725 16.7357127,35 16.3655901,35 C15.9172673,35 15.5116372,34.8152876 15.216364,34.5170654 L15.216364,34.5170654 L15.2045711,34.5050339 L9.52603994,28.7116265 L9.43965545,28.6234944 C9.42045175,28.6024229 9.4039546,28.5790833 9.3858464,28.5569598 C9.14850655,28.2675147 9,27.8996349 9,27.4927022 C9,27.1346186 9.11293461,26.8047727 9.30123408,26.533046 C9.31747345,26.5096076 9.33738601,26.4892922 9.35481758,26.4667415 L9.35481758,26.4667415 L9.62866379,26.1873554 L15.1260164,20.5788247 L15.2876691,20.4138688 C15.574597,20.1594003 15.944784,20 16.3548284,20 Z M30.6344216,20 C31.0827476,20 31.4883806,20.1847124 31.7836559,20.4829346 L31.7836559,20.4829346 L31.7954489,20.4949661 L37.4740208,26.2884064 L37.5604059,26.3765384 C37.5796097,26.3976099 37.596107,26.4209496 37.6142153,26.443073 C37.8515568,26.7324853 38,27.100398 38,27.5072978 C38,27.8653814 37.8870646,28.1952273 37.6987637,28.466954 C37.6825243,28.4903924 37.6626115,28.5107078 37.6451799,28.5332585 L37.6451799,28.5332585 L37.3713317,28.8126446 L31.873972,34.4211753 L31.7123181,34.5861312 C31.4253882,34.8405997 31.0551985,35 30.6451512,35 C30.255951,35 29.9033542,34.8553925 29.6226429,34.6237048 L29.6226429,34.6237048 L29.3794371,34.3755808 C29.1523741,34.0891927 29.0107296,33.7294655 29.0107296,33.3324933 C29.0107296,32.9043576 29.1734146,32.5180362 29.4333754,32.2227397 L29.4333754,32.2227397 L29.5573949,32.0962122 L34.0589577,27.5036489 L29.5671257,22.9209803 L29.4057619,22.7563532 C29.1562407,22.4635879 29,22.0858791 29,21.6674738 C29,21.2899952 29.1275316,20.9457182 29.3348752,20.6662335 L29.3348752,20.6662335 L29.652802,20.3418773 C29.9268113,20.130275 30.2642964,20 30.6344216,20 Z M25.3282894,21 C25.4999623,21 25.6622096,21.0340164 25.8181292,21.0830094 L25.8181292,21.0830094 L26.0556173,21.1762606 C26.6128212,21.452522 27,22.0295244 27,22.7033376 C27,22.8750649 26.9675703,23.0375578 26.9211669,23.193872 L26.9211669,23.193872 L26.8248336,23.4486087 L23.2334109,32.8896489 L23.1943568,32.9930077 C22.9327442,33.5856919 22.3509214,34 21.6717436,34 C21.5188561,34 21.3736146,33.9722966 21.2328553,33.9331089 C21.123471,33.902652 21.0193928,33.8616846 20.9201593,33.8103746 C20.3764018,33.5293113 20,32.9604688 20,32.2966624 C20,32.1370574 20.0284749,31.9856459 20.0687812,31.8391706 L20.0687812,31.8391706 L20.1835705,31.5356424 L23.7566032,22.1431922 L23.8140472,21.9913106 C24.0791203,21.4073907 24.6553734,21 25.3282894,21 Z" id="Combined-Shape" fill="#FFFFFF" fill-rule="nonzero"></path></g></g></g></g></svg>