<svg id="svg-4903" xmlns="http://www.w3.org/2000/svg" xmlns:xlink="http://www.w3.org/1999/xlink" width="121px" height="98px" viewBox="0 0 121 98"><title>nâng cấp và bảo trì app</title><defs><linearGradient x1="110.443043%" y1="20.4080351%" x2="44.1763758%" y2="72.7854763%" id="linearGradient-1"><stop stop-color="#FAD961" offset="0%"></stop><stop stop-color="#FF6300" offset="100%"></stop></linearGradient><linearGradient x1="110.443043%" y1="20.4080351%" x2="44.1763758%" y2="72.7854763%" id="linearGradient-2"><stop stop-color="#FAD961" offset="0%"></stop><stop stop-color="#FF6300" offset="100%"></stop></linearGradient><linearGradient x1="22.6359659%" y1="21.7198361%" x2="99.6675207%" y2="86.0463392%" id="linearGradient-3"><stop stop-color="#FFAF84" offset="0%"></stop><stop stop-color="#FF6D30" offset="100%"></stop></linearGradient><linearGradient x1="0%" y1="17.4015799%" x2="100%" y2="82.5984201%" id="linearGradient-4"><stop stop-color="#75A8FF" offset="0%"></stop><stop stop-color="#4D82FF" offset="100%"></stop></linearGradient></defs><g id="Page-1" stroke="none" stroke-width="1" fill="none" fill-rule="evenodd"><g id="nâng-cấp-và-bảo-trì-app"><g id="Group-9" transform="translate(26.739652, 4.038774)"><path d="M46.2385321,92.5909091 C71.7753682,92.5909091 92.4770642,71.8637281 92.4770642,46.2954545 C92.4770642,20.727181 71.7753682,0 46.2385321,0 C20.701696,0 0,20.727181 0,46.2954545 C0,71.8637281 20.701696,92.5909091 46.2385321,92.5909091 Z" id="Oval-7" stroke="#E0EBFE" stroke-width="2.31139241" stroke-dasharray="3.467088484764099,4.622784996032715"></path><ellipse id="Oval-7" stroke="#4877FC" stroke-width="2.46279739" fill="#FFFFFF" fill-rule="nonzero" cx="46.147464" cy="46.3016642" rx="34.7423794" ry="34.85847"></ellipse><ellipse id="Oval-8" stroke="#5F8AFF" stroke-width="2.46279739" cx="46.3530402" cy="46.5079274" rx="8.63420081" ry="8.6630517"></ellipse><ellipse id="Oval-8-Copy" stroke="#E0EBFE" stroke-width="2.46279739" cx="46.3530402" cy="46.5079274" rx="22.6133831" ry="22.6889449"></ellipse><path d="M38.9845524,25.0507478 C30.1132449,28.1169895 23.7396571,36.5656557 23.7396571,46.5079274 M64.7089482,59.7619796 C67.3880489,56.0333392 68.9664233,51.4555738 68.9664233,46.5079274 C68.9664233,43.1608603 68.2440835,39.9830684 66.9472824,37.1229245" id="Oval-8-Copy-2" stroke="#FF6300" stroke-width="2.46279739"></path><line x1="46.6148287" y1="46.690019" x2="73.3746334" y2="25.3576018" id="Path-7" stroke="#4877FC" stroke-width="2.46279739"></line><ellipse id="Oval-9-Copy-3" fill="url(#linearGradient-1)" fill-rule="nonzero" opacity="0.200000003" cx="68.9664233" cy="48.5705587" rx="6.16728629" ry="6.18789407"></ellipse><ellipse id="Oval-9" fill="#FF6300" fill-rule="nonzero" cx="68.7608471" cy="48.3642956" rx="3.08364315" ry="3.09394704"></ellipse><ellipse id="Oval-9-Copy-2" fill="url(#linearGradient-2)" fill-rule="nonzero" opacity="0.200000003" cx="27.6456051" cy="33.1008235" rx="5.96171008" ry="5.98163094"></ellipse><ellipse id="Oval-9-Copy" fill="#FF6300" fill-rule="nonzero" cx="27.6456051" cy="33.1008235" rx="3.08364315" ry="3.09394704"></ellipse></g><g id="Group-11" fill-rule="nonzero"><g id="Combined-Shape" fill="url(#linearGradient-3)"><path d="M36.7432032,33.7670897 L31.6859358,33.0224079 L31.6859358,33.0224079 C28.3210302,36.1041859 23.8435809,37.9837121 18.9286067,37.9837121 C8.4746259,37.9837121 0,29.4807685 0,18.991856 C0,8.50294358 8.4746259,0 18.9286067,0 C29.3825876,0 37.8572135,8.50294358 37.8572135,18.991856 C37.8572135,22.2129375 37.0579996,25.2467288 35.6476814,27.9044917 L37.4696111,32.8739181 C37.5969399,33.2212152 37.4186203,33.6059754 37.0713233,33.7333041 C36.9664768,33.7717438 36.8536828,33.7833578 36.7432032,33.7670897 Z" id="path-4"></path></g><g id="Group-10" transform="translate(16.292978, 7.692904)" fill="#FFF9F1"><path d="M2.8752314,17.3090334 C4.46317786,17.3090334 5.75046281,18.6006197 5.75046281,20.1938722 C5.75046281,21.7871248 4.46317786,23.0787111 2.8752314,23.0787111 C1.28728495,23.0787111 0,21.7871248 0,20.1938722 C0,18.6006197 1.28728495,17.3090334 2.8752314,17.3090334 Z M5.75046281,0 L5.03165495,15.3858074 L0.718807851,15.3858074 L0,0 L5.75046281,0 Z" id="Combined-Shape"></path></g></g><path d="M64.0445236,53.0185381 L64.0475408,53.022155 L77.1178272,68.7428325 C77.5988606,69.3214098 78.4450635,69.4302708 79.0568743,68.9922841 L87.4976378,62.9496603 C88.1307726,62.496408 89.0098344,62.6306781 89.4787952,63.2522673 L97.9505591,74.48034 C95.7343835,76.796115 93.2024699,78.8054038 90.4242655,80.4385269 L87.460714,76.5098996 C86.9917532,75.8883105 86.1126914,75.7540403 85.4795566,76.2072926 L77.3896195,81.9987648 C76.7778086,82.4367516 75.9316058,82.3278905 75.4505724,81.7493132 L56.6818903,59.1747201 C56.176318,58.5666279 56.257904,57.6641459 56.8643337,57.1565807 L62.0227673,52.8391118 C62.6306071,52.3303664 63.5357782,52.4106983 64.0445236,53.0185381 Z" id="Combined-Shape" fill="#2E344D" fill-rule="nonzero" opacity="0.200000003"></path><path d="M66.919755,51.0953122 L66.9227722,51.098929 L79.9930586,66.8196065 C80.474092,67.3981839 81.3202949,67.5070449 81.9321057,67.0690581 L90.3728692,61.0264343 C91.006004,60.573182 91.8850658,60.7074522 92.3540266,61.3290413 L105.733767,79.0628419 L110.350738,75.4563908 C110.558943,75.2937232 110.859595,75.3306386 111.022262,75.5388437 C111.09223,75.6283988 111.128032,75.7399372 111.123679,75.8534838 L110.442728,92.0331593 C110.431624,92.297142 110.208623,92.5021412 109.944641,92.4910379 C109.919091,92.4899633 109.893668,92.4868418 109.868617,92.4817034 L94.0049127,89.2277998 C93.7460853,89.1747101 93.579302,88.9218513 93.6323917,88.663024 C93.6552271,88.5516948 93.7169492,88.4521308 93.8065042,88.3821627 L98.1707669,84.9718419 L90.3359454,74.5866737 C89.8669846,73.9650845 88.9879228,73.8308144 88.354788,74.2840667 L80.2648509,80.0755389 C79.6530401,80.5135256 78.8068372,80.4046646 78.3258038,79.8260873 L59.5571217,57.2514942 C59.0515494,56.643402 59.1331354,55.74092 59.7395651,55.2333548 L64.8979987,50.9158859 C65.5058385,50.4071405 66.4110096,50.4874724 66.919755,51.0953122 Z" id="Combined-Shape" fill="url(#linearGradient-4)" fill-rule="nonzero"></path></g></g></svg>