<?xml version="1.0" encoding="UTF-8"?> <svg xmlns="http://www.w3.org/2000/svg" viewBox="0 0 2727.18 443.13"><defs><style>.cls-1,.cls-4{fill:#20badb;}.cls-2,.cls-3{fill:#0380ab;}.cls-3,.cls-4{fill-rule:evenodd;}</style></defs><g id="Layer_2" data-name="Layer 2"><g id="Layer_1-2" data-name="Layer 1"><path class="cls-1" d="M583.23,60.4h68.21l88.08,307.85h-69.3l-15.38-63.56H568.12L553,368.25H490.63Zm58.84,191.45L611,126.05l-29.82,125.8Z"></path><path class="cls-1" d="M790.48,60.4h88.65q40.38,0,62.6,6.77t37.33,30.59q15.12,23.82,15.12,59,0,33.86-12.18,56t-33.7,31.94q-21.52,9.82-66.15,9.82h-23.9V368.25H790.48Zm67.77,49.78v91.51h21q27.74,0,35.74-12.91t8-33.53q0-17.43-6.2-28.2t-14.43-13.82q-8.24-3-23.11-3Z"></path><path class="cls-1" d="M1052,60.4h88.66q40.38,0,62.59,6.77t37.34,30.59q15.11,23.82,15.11,59,0,33.86-12.17,56t-33.7,31.94q-21.52,9.82-66.16,9.82h-23.89V368.25H1052Zm67.78,49.78v91.51h21q27.72,0,35.73-12.91t8-33.53q0-17.43-6.21-28.2t-14.43-13.82q-8.24-3-23.1-3Z"></path><path class="cls-2" d="M1502,127.45l-55.9,21.4q-12-37.9-44.09-37.91-15,0-23.74,8.43T1369.49,139a24.69,24.69,0,0,0,10.3,20.79q10.31,7.74,43.15,20.37,29.89,11,47,21.86a81.76,81.76,0,0,1,27.63,29.4q10.55,18.6,10.54,43.15,0,43-29.7,70.64t-79.6,27.6q-83.77,0-107-84.55l59-16.91q10.9,46.32,49.8,46.33,17.73,0,28.76-9.1t11-23.95a29.85,29.85,0,0,0-7.72-20.11q-7.71-8.88-35.38-18.79-35.61-12.62-53.07-22.87t-28.81-29.29q-11.34-19-11.33-43.38,0-41.46,26.77-67.93t70.85-26.48Q1482.09,55.81,1502,127.45Z"></path><path class="cls-2" d="M1575.14,60.4h88.65q40.39,0,62.6,6.77t37.33,30.59q15.12,23.82,15.12,59,0,33.86-12.17,56T1733,244.71q-21.54,9.82-66.16,9.82h-23.89V368.25h-67.78Zm67.78,49.78v91.51h21q27.73,0,35.74-12.91t8-33.53q0-17.43-6.2-28.2T1687,113.23q-8.23-3-23.11-3Z"></path><path class="cls-2" d="M1836.7,60.4h67.77V368.25H1836.7Z"></path><path class="cls-2" d="M1988,60.4h96.73q28.18,0,43.18,2.6t30.33,14q15.33,11.4,24,31.13t8.68,44.32q0,57.75-43.22,81.2l56.62,134.62h-73.52l-41.18-121.76h-33.86V368.25H1988Zm67.77,49.78v86.53h29.71q39.58,0,39.6-44.51,0-15.36-5.86-25.19t-13.61-13.33q-7.77-3.5-22.84-3.5Z"></path><path class="cls-2" d="M2265.08,60.4h186.85v52.84H2332.85v71.6h92.66v52.84h-92.66v75.43h119.08v55.14H2265.08Z"></path><path class="cls-2" d="M2510.84,60.4h96.74q28.17,0,43.17,2.6t30.33,14q15.33,11.4,24,31.13t8.68,44.32q0,57.75-43.22,81.2l56.62,134.62h-73.52l-41.18-121.76h-33.87V368.25h-67.77Zm67.77,49.78v86.53h29.71q39.58,0,39.6-44.51,0-15.36-5.85-25.19t-13.62-13.33q-7.75-3.5-22.84-3.5Z"></path><path class="cls-3" d="M221.56,0c122,0,221.57,99.53,221.57,221.56S343.59,443.13,221.56,443.13,0,343.6,0,221.56,99.53,0,221.56,0Zm0,9.36c116.88,0,212.2,95.33,212.2,212.2s-95.32,212.2-212.2,212.2S9.36,338.44,9.36,221.56,104.69,9.36,221.56,9.36Z"></path><path class="cls-3" d="M144.57,61.69h154a19.7,19.7,0,0,1,19.64,19.64v92.14H241.81l-30-30a13.35,13.35,0,1,1,6.61-6.63l27.31,27.31h53.64v-63c0-.49-.17-1-.75-1H144.82l-1,.74v122H124.93V81.33a19.7,19.7,0,0,1,19.64-19.64Zm52.59,15.24H246a3.91,3.91,0,0,1,3.9,3.9h0a3.91,3.91,0,0,1-3.9,3.9h-48.8a3.91,3.91,0,0,1-3.9-3.9h0a3.92,3.92,0,0,1,3.9-3.9ZM203.5,134a3.89,3.89,0,1,1,5.5,0,3.91,3.91,0,0,1-5.5,0Z"></path><path class="cls-3" d="M299.33,220.28v122l-1,.74H144.53l-.74-1V279h53.64l27.31,27.3a13.34,13.34,0,1,0,6.62-6.62l-30-30H124.93v92.13a19.69,19.69,0,0,0,19.64,19.64h154a19.69,19.69,0,0,0,19.64-19.64V220.28ZM211.72,355.07H231.4a7.14,7.14,0,0,1,7.13,7.12h0a7.15,7.15,0,0,1-7.13,7.13H211.72a7.15,7.15,0,0,1-7.13-7.13h0a7.14,7.14,0,0,1,7.13-7.12Zm27.9-46a3.89,3.89,0,1,1-5.49,0,3.92,3.92,0,0,1,5.49,0Z"></path><path class="cls-4" d="M19.71,241.57q-1-9.88-1-20c0-111.72,91.12-202.84,202.84-202.84,98.49,0,180.94,70.81,199.11,164.12h0c.31,1.59.6,3.19.87,4.79v0c.25,1.47.48,2.94.7,4.43,0,0,0,.08,0,.12H234L215.3,173.47H181.16a13.33,13.33,0,1,1,0-9.36h38l18.73,18.73H411.12c-18-88.11-96.25-154.75-189.56-154.75C115,28.09,28.09,115,28.09,221.56c0,3.57.1,7.13.29,10.65H151.19v0h73.19a13.34,13.34,0,1,1,0,9.36l-204.67,0Zm149-76.67a3.9,3.9,0,1,0,3.89,3.9,3.91,3.91,0,0,0-3.89-3.9Zm68.18,75.85a3.9,3.9,0,1,0-3.89-3.9,3.91,3.91,0,0,0,3.89,3.9Z"></path><path class="cls-4" d="M414.75,210.92l-196,0a13.34,13.34,0,1,1,0-9.37l204.67,0q1,9.87,1,20c0,111.72-91.12,202.84-202.84,202.84-98.48,0-180.94-70.81-199.1-164.12h0c-.6-3.09-1.14-6.21-1.6-9.35H209.1l18.73,18.72H262a13.35,13.35,0,1,1,0,9.37H224l-18.72-18.74H32C50,348.4,128.25,415,221.56,415,328.13,415,415,328.13,415,221.56q0-5.35-.29-10.64Zm-208.48-8.54a3.89,3.89,0,1,0,3.89,3.89,3.9,3.9,0,0,0-3.89-3.89Zm68.18,75.84a3.89,3.89,0,1,0-3.9-3.89,3.9,3.9,0,0,0,3.9,3.89Z"></path></g></g></svg> 