<svg width="63" height="11" viewBox="0 0 63 11" fill="none" xmlns="http://www.w3.org/2000/svg">
<path fill-rule="evenodd" clip-rule="evenodd" d="M23.9367 3.8584C23.8886 3.72556 23.7597 3.63227 23.6093 3.62144L20.1458 3.37196L18.8288 0.222897C18.7726 0.0885226 18.6333 0 18.4782 0C18.323 0 18.1838 0.0885226 18.1276 0.222897L16.8106 3.37196L13.3471 3.62144C13.1967 3.63227 13.0678 3.72556 13.0197 3.8584C12.9715 3.99125 13.0135 4.13796 13.1263 4.23109L15.7915 6.43227L14.9587 9.74839C14.9238 9.88735 14.9833 10.0321 15.109 10.114C15.2348 10.1959 15.4015 10.1985 15.5302 10.1207L18.4782 8.33669L21.4262 10.1207C21.4887 10.1585 21.5601 10.1773 21.6314 10.1773C21.7071 10.1773 21.7826 10.1561 21.8473 10.114C21.9731 10.0321 22.0326 9.88734 21.9977 9.74838L21.1649 6.43225L23.8301 4.23109C23.9429 4.13796 23.9848 3.99125 23.9367 3.8584Z" fill="url(#paint0_linear_7_321)"/>
<path fill-rule="evenodd" clip-rule="evenodd" d="M10.9367 3.8584C10.8886 3.72556 10.7597 3.63227 10.6093 3.62144L7.14575 3.37196L5.82876 0.222897C5.77257 0.0885226 5.63333 0 5.47819 0C5.32304 0 5.18382 0.0885226 5.12762 0.222897L3.81065 3.37196L0.347061 3.62144C0.196656 3.63227 0.0677757 3.72556 0.0196589 3.8584C-0.0284579 3.99125 0.0135158 4.13796 0.126261 4.23109L2.79153 6.43227L1.95867 9.74839C1.92377 9.88735 1.9833 10.0321 2.10904 10.114C2.2348 10.1959 2.40152 10.1985 2.5302 10.1207L5.47819 8.33669L8.42619 10.1207C8.48866 10.1585 8.56008 10.1773 8.63143 10.1773C8.70707 10.1773 8.78264 10.1561 8.84734 10.114C8.97309 10.0321 9.03261 9.88734 8.99771 9.74838L8.16486 6.43225L10.8301 4.23109C10.9429 4.13796 10.9848 3.99125 10.9367 3.8584Z" fill="url(#paint1_linear_7_321)"/>
<path fill-rule="evenodd" clip-rule="evenodd" d="M62.9367 3.8584C62.8886 3.72556 62.7597 3.63227 62.6093 3.62144L59.1458 3.37196L57.8288 0.222897C57.7726 0.0885226 57.6333 0 57.4782 0C57.323 0 57.1838 0.0885226 57.1276 0.222897L55.8106 3.37196L52.3471 3.62144C52.1967 3.63227 52.0678 3.72556 52.0197 3.8584C51.9715 3.99125 52.0135 4.13796 52.1263 4.23109L54.7915 6.43227L53.9587 9.74839C53.9238 9.88735 53.9833 10.0321 54.109 10.114C54.2348 10.1959 54.4015 10.1985 54.5302 10.1207L57.4782 8.33669L60.4262 10.1207C60.4887 10.1585 60.5601 10.1773 60.6314 10.1773C60.7071 10.1773 60.7826 10.1561 60.8473 10.114C60.9731 10.0321 61.0326 9.88734 60.9977 9.74838L60.1649 6.43225L62.8301 4.23109C62.9429 4.13796 62.9848 3.99125 62.9367 3.8584Z" fill="url(#paint2_linear_7_321)"/>
<path fill-rule="evenodd" clip-rule="evenodd" d="M49.9367 3.8584C49.8886 3.72556 49.7597 3.63227 49.6093 3.62144L46.1458 3.37196L44.8288 0.222897C44.7726 0.0885226 44.6333 0 44.4782 0C44.323 0 44.1838 0.0885226 44.1276 0.222897L42.8106 3.37196L39.3471 3.62144C39.1967 3.63227 39.0678 3.72556 39.0197 3.8584C38.9715 3.99125 39.0135 4.13796 39.1263 4.23109L41.7915 6.43227L40.9587 9.74839C40.9238 9.88735 40.9833 10.0321 41.109 10.114C41.2348 10.1959 41.4015 10.1985 41.5302 10.1207L44.4782 8.33669L47.4262 10.1207C47.4887 10.1585 47.5601 10.1773 47.6314 10.1773C47.7071 10.1773 47.7826 10.1561 47.8473 10.114C47.9731 10.0321 48.0326 9.88734 47.9977 9.74838L47.1649 6.43225L49.8301 4.23109C49.9429 4.13796 49.9848 3.99125 49.9367 3.8584Z" fill="url(#paint3_linear_7_321)"/>
<path fill-rule="evenodd" clip-rule="evenodd" d="M36.9367 3.8584C36.8886 3.72556 36.7597 3.63227 36.6093 3.62144L33.1458 3.37196L31.8288 0.222897C31.7726 0.0885226 31.6333 0 31.4782 0C31.323 0 31.1838 0.0885226 31.1276 0.222897L29.8106 3.37196L26.3471 3.62144C26.1967 3.63227 26.0678 3.72556 26.0197 3.8584C25.9715 3.99125 26.0135 4.13796 26.1263 4.23109L28.7915 6.43227L27.9587 9.74839C27.9238 9.88735 27.9833 10.0321 28.109 10.114C28.2348 10.1959 28.4015 10.1985 28.5302 10.1207L31.4782 8.33669L34.4262 10.1207C34.4887 10.1585 34.5601 10.1773 34.6314 10.1773C34.7071 10.1773 34.7826 10.1561 34.8473 10.114C34.9731 10.0321 35.0326 9.88734 34.9977 9.74838L34.1649 6.43225L36.8301 4.23109C36.9429 4.13796 36.9848 3.99125 36.9367 3.8584Z" fill="url(#paint4_linear_7_321)"/>
<defs>
<linearGradient id="paint0_linear_7_321" x1="13" y1="0" x2="13" y2="10.1773" gradientUnits="userSpaceOnUse">
<stop stop-color="#FBDA5B"/>
<stop offset="1" stop-color="#F6B32E"/>
</linearGradient>
<linearGradient id="paint1_linear_7_321" x1="0" y1="0" x2="0" y2="10.1773" gradientUnits="userSpaceOnUse">
<stop stop-color="#FBDA5B"/>
<stop offset="1" stop-color="#F6B32E"/>
</linearGradient>
<linearGradient id="paint2_linear_7_321" x1="52" y1="0" x2="52" y2="10.1773" gradientUnits="userSpaceOnUse">
<stop stop-color="#FBDA5B"/>
<stop offset="1" stop-color="#F6B32E"/>
</linearGradient>
<linearGradient id="paint3_linear_7_321" x1="39" y1="0" x2="39" y2="10.1773" gradientUnits="userSpaceOnUse">
<stop stop-color="#FBDA5B"/>
<stop offset="1" stop-color="#F6B32E"/>
</linearGradient>
<linearGradient id="paint4_linear_7_321" x1="26" y1="0" x2="26" y2="10.1773" gradientUnits="userSpaceOnUse">
<stop stop-color="#FBDA5B"/>
<stop offset="1" stop-color="#F6B32E"/>
</linearGradient>
</defs>
</svg>
