<?xml version="1.0" encoding="UTF-8"?> <svg xmlns="http://www.w3.org/2000/svg" width="512" height="512" viewBox="0 0 512 512" fill="none"><g clip-path="url(#clip0_1_94)"><path d="M304.892 216.838V187.417H207.11V216.838C207.11 221.88 203.642 226.259 198.734 227.413L131.513 243.23C121.697 245.541 114.759 254.299 114.759 264.383V308.966C114.759 318.717 122.663 326.621 132.414 326.621H379.586C389.337 326.621 397.241 318.717 397.241 308.966V264.383C397.241 254.3 390.304 245.541 380.488 243.231L313.267 227.414C308.36 226.259 304.892 221.88 304.892 216.838Z" fill="#E6AF78"></path><path d="M380.489 243.23L324.187 229.983C316.175 260.189 288.728 282.483 256.001 282.483C223.274 282.483 195.827 260.189 187.816 229.983L131.514 243.23C121.698 245.541 114.76 254.299 114.76 264.382V308.966C114.76 318.716 122.665 326.621 132.415 326.621H379.587C389.337 326.621 397.242 318.716 397.242 308.966V264.382C397.242 254.298 390.304 245.54 380.489 243.23Z" fill="#FFD782"></path><path d="M207.109 216.838C207.109 220.485 205.278 223.765 202.417 225.749C266.865 258.037 304.892 194.19 304.892 194.19V187.416H207.11V216.837H207.109V216.838Z" fill="#D29B6E"></path><path d="M185.38 59.756L190.114 163.902C190.556 173.631 195.327 182.654 203.118 188.497L225.58 205.343C231.222 209.575 238.084 211.862 245.136 211.862H266.865C273.917 211.862 280.779 209.575 286.421 205.343L308.883 188.497C316.674 182.653 321.445 173.631 321.887 163.902L326.621 59.756H185.38V59.756Z" fill="#F0C087"></path><path d="M185.38 59.756L190.114 163.902C190.556 173.632 195.327 182.654 203.118 188.498L225.58 205.344C231.222 209.576 238.084 211.863 245.136 211.863H256C239.703 206.431 228.839 162.971 228.839 162.971L229.433 109.951C229.482 105.579 232.726 101.937 237.052 101.305C265.724 97.124 302.325 88.869 326.622 64.826V59.755L185.38 59.756Z" fill="#E6AF78"></path><path d="M174.515 54.324V59.756L179.947 119.512H190.812L201.677 86.918C201.677 86.918 272.298 86.918 310.325 65.189L321.19 119.513H332.055L337.487 59.757V54.325C337.485 24.321 313.164 0 283.162 0H228.838C198.836 0 174.515 24.321 174.515 54.324Z" fill="#5A4146"></path><path d="M337.144 128.052L331.009 152.592C330.282 155.5 327.67 157.539 324.673 157.539C321.379 157.539 318.601 155.086 318.192 151.818L315.055 126.72C314.216 120.009 319.449 114.08 326.213 114.08H326.234C333.551 114.08 338.919 120.954 337.144 128.052Z" fill="#F0C087"></path><path d="M174.856 128.052L180.991 152.592C181.718 155.5 184.33 157.539 187.327 157.539C190.621 157.539 193.399 155.086 193.808 151.818L196.945 126.72C197.784 120.009 192.551 114.08 185.787 114.08H185.766C178.45 114.08 173.082 120.954 174.856 128.052Z" fill="#E6AF78"></path><path d="M154.64 282.537L119.439 250.915C116.489 254.65 114.759 259.35 114.759 264.381V308.965C114.759 318.716 122.663 326.62 132.414 326.62H163.65V302.742C163.65 295.034 160.374 287.689 154.64 282.537Z" fill="#FFC36E"></path><path d="M357.361 282.537L392.562 250.915C395.512 254.65 397.242 259.35 397.242 264.381V308.965C397.242 318.716 389.338 326.62 379.587 326.62H348.35V302.742C348.35 295.034 351.626 287.689 357.361 282.537Z" fill="#FFC36E"></path><path d="M324.186 229.983C316.175 260.189 288.728 282.483 256.001 282.483C223.274 282.483 195.827 260.189 187.816 229.983L170.666 234.018L170.752 234.508C181.001 273.151 216.057 300.138 256.001 300.138C295.945 300.138 331.001 273.151 341.251 234.508L341.298 234.008L324.186 229.983Z" fill="#FFC36E"></path><path d="M79.448 490.217L39.996 510.957C33.465 514.391 25.832 508.845 27.079 501.572L34.613 457.643L2.69801 426.532C-2.58499 421.382 0.330009 412.409 7.63201 411.347L51.74 404.938L71.465 364.969C74.73 358.353 84.166 358.353 87.431 364.969L107.156 404.938L151.264 411.347C158.566 412.409 161.481 421.381 156.198 426.532L124.281 457.644L131.815 501.573C133.062 508.845 125.429 514.391 118.898 510.958L79.448 490.217Z" fill="#FFCD78"></path><path d="M151.265 411.348L107.157 404.939L87.431 364.97C84.166 358.354 74.731 358.354 71.465 364.97L58.8 390.633L128.856 509.728C131.051 507.818 132.387 504.903 131.817 501.572L124.283 457.643L156.2 426.531C161.482 421.382 158.567 412.409 151.265 411.348Z" fill="#FFD782"></path><path d="M108.917 417.152C101.935 415.56 96.439 410.065 94.848 403.083C94.728 402.558 94.033 402.558 93.912 403.083C92.321 410.065 86.825 415.561 79.843 417.152C79.318 417.272 79.318 417.967 79.843 418.088C86.825 419.679 92.321 425.175 93.912 432.157C94.032 432.682 94.727 432.682 94.848 432.157C96.439 425.175 101.935 419.679 108.917 418.088C109.442 417.969 109.442 417.272 108.917 417.152Z" fill="white"></path><path d="M256 490.217L216.548 510.957C210.017 514.391 202.384 508.845 203.631 501.572L211.165 457.643L179.248 426.531C173.965 421.381 176.88 412.408 184.182 411.346L228.29 404.937L248.015 364.968C251.28 358.352 260.716 358.352 263.981 364.968L283.706 404.937L327.814 411.346C335.116 412.408 338.031 421.38 332.748 426.531L300.831 457.643L308.365 501.572C309.612 508.844 301.979 514.39 295.448 510.957L256 490.217Z" fill="#FFCD78"></path><path d="M327.817 411.348L283.709 404.939L263.983 364.97C260.718 358.354 251.283 358.354 248.017 364.97L235.352 390.633L305.408 509.728C307.603 507.818 308.939 504.903 308.369 501.572L300.835 457.643L332.752 426.531C338.034 421.382 335.119 412.409 327.817 411.348Z" fill="#FFD782"></path><path d="M285.469 417.152C278.487 415.56 272.991 410.065 271.4 403.083C271.28 402.558 270.585 402.558 270.464 403.083C268.873 410.065 263.377 415.561 256.395 417.152C255.87 417.272 255.87 417.967 256.395 418.088C263.377 419.679 268.873 425.175 270.464 432.157C270.584 432.682 271.279 432.682 271.4 432.157C272.991 425.175 278.487 419.679 285.469 418.088C285.994 417.969 285.994 417.272 285.469 417.152Z" fill="white"></path><path d="M432.552 490.217L393.1 510.957C386.569 514.391 378.936 508.845 380.183 501.572L387.717 457.643L355.8 426.531C350.517 421.381 353.432 412.408 360.734 411.346L404.842 404.937L424.567 364.968C427.832 358.352 437.268 358.352 440.533 364.968L460.258 404.937L504.366 411.346C511.668 412.408 514.583 421.38 509.3 426.531L477.383 457.643L484.917 501.572C486.164 508.844 478.531 514.39 472 510.957L432.552 490.217Z" fill="#FFCD78"></path><path d="M504.369 411.348L460.261 404.939L440.535 364.97C437.27 358.354 427.835 358.354 424.569 364.97L411.904 390.633L481.96 509.728C484.155 507.818 485.491 504.903 484.921 501.572L477.387 457.643L509.304 426.531C514.586 421.382 511.67 412.409 504.369 411.348Z" fill="#FFD782"></path><path d="M462.021 417.152C455.039 415.56 449.543 410.065 447.952 403.083C447.832 402.558 447.137 402.558 447.016 403.083C445.425 410.065 439.929 415.561 432.947 417.152C432.422 417.272 432.422 417.967 432.947 418.088C439.929 419.679 445.425 425.175 447.016 432.157C447.136 432.682 447.831 432.682 447.952 432.157C449.543 425.175 455.039 419.679 462.021 418.088C462.546 417.969 462.546 417.272 462.021 417.152Z" fill="white"></path></g><defs><clipPath id="clip0_1_94"><rect width="512" height="512" fill="white"></rect></clipPath></defs></svg> 